<svg xmlns="http://www.w3.org/2000/svg" viewBox="0 0 500 500"><g id="freepik--background-complete--inject-21"><rect y="382.4" width="500" height="0.25" style="fill:#ebebeb"></rect><rect x="416.78" y="398.49" width="33.12" height="0.25" style="fill:#ebebeb"></rect><rect x="322.53" y="401.21" width="8.69" height="0.25" style="fill:#ebebeb"></rect><rect x="396.59" y="389.21" width="19.19" height="0.25" style="fill:#ebebeb"></rect><rect x="52.46" y="390.89" width="43.19" height="0.25" style="fill:#ebebeb"></rect><rect x="104.56" y="390.89" width="6.33" height="0.25" style="fill:#ebebeb"></rect><rect x="131.47" y="395.11" width="93.68" height="0.25" style="fill:#ebebeb"></rect><path d="M237,337.8H43.91a5.71,5.71,0,0,1-5.7-5.71V60.66A5.71,5.71,0,0,1,43.91,55H237a5.71,5.71,0,0,1,5.71,5.71V332.09A5.71,5.71,0,0,1,237,337.8ZM43.91,55.2a5.46,5.46,0,0,0-5.45,5.46V332.09a5.46,5.46,0,0,0,5.45,5.46H237a5.47,5.47,0,0,0,5.46-5.46V60.66A5.47,5.47,0,0,0,237,55.2Z" style="fill:#ebebeb"></path><path d="M453.31,337.8H260.21a5.72,5.72,0,0,1-5.71-5.71V60.66A5.72,5.72,0,0,1,260.21,55h193.1A5.71,5.71,0,0,1,459,60.66V332.09A5.71,5.71,0,0,1,453.31,337.8ZM260.21,55.2a5.47,5.47,0,0,0-5.46,5.46V332.09a5.47,5.47,0,0,0,5.46,5.46h193.1a5.47,5.47,0,0,0,5.46-5.46V60.66a5.47,5.47,0,0,0-5.46-5.46Z" style="fill:#ebebeb"></path><rect x="59.03" y="128.82" width="381.94" height="253.14" style="fill:#e0e0e0"></rect><path d="M250,380.83v-258s48.67-15.79,178.8-15.79V380.83Z" style="fill:#f5f5f5"></path><path d="M250,380.83v-258s-48.67-15.79-178.8-15.79V380.83Z" style="fill:#f0f0f0"></path><path d="M263.92,149.49a2.5,2.5,0,0,1-.38-5,1095.23,1095.23,0,0,1,147.21-10.25,2.5,2.5,0,0,1,0,5A1090.08,1090.08,0,0,0,264.3,149.46,2.43,2.43,0,0,1,263.92,149.49Z" style="fill:#e6e6e6"></path><path d="M263.92,168a2.5,2.5,0,0,1-.31-5c.74-.09,74.87-9.3,147.14-9.3a2.5,2.5,0,0,1,0,5c-71.95,0-145.78,9.17-146.52,9.26Z" style="fill:#e6e6e6"></path><path d="M263.92,186.55a2.5,2.5,0,0,1-.25-5c.81-.09,82.05-8.37,147.08-8.37a2.5,2.5,0,0,1,0,5c-64.77,0-145.76,8.26-146.57,8.34Z" style="fill:#e6e6e6"></path><path d="M263.92,205.09a2.5,2.5,0,0,1-.21-5c.89-.07,89.25-7.43,147-7.43a2.5,2.5,0,0,1,0,5c-57.58,0-145.73,7.34-146.62,7.42Z" style="fill:#e6e6e6"></path><path d="M263.92,223.62a2.5,2.5,0,0,1-.17-5c1-.06,96.44-6.5,147-6.5a2.5,2.5,0,0,1,0,5c-50.39,0-145.7,6.43-146.66,6.49Z" style="fill:#e6e6e6"></path><path d="M263.92,242.15a2.5,2.5,0,0,1-.13-5c1-.05,103.63-5.57,147-5.57a2.5,2.5,0,0,1,0,5c-43.2,0-145.66,5.51-146.69,5.57Z" style="fill:#e6e6e6"></path><path d="M263.92,260.68a2.5,2.5,0,0,1-.1-5c1.1,0,110.82-4.64,146.93-4.64a2.5,2.5,0,0,1,0,5c-36,0-145.62,4.59-146.72,4.64Z" style="fill:#e6e6e6"></path><path d="M263.92,279.21a2.5,2.5,0,0,1-.08-5c1.18,0,118-3.72,146.91-3.72a2.5,2.5,0,0,1,0,5c-28.8,0-145.57,3.68-146.75,3.71Z" style="fill:#e6e6e6"></path><path d="M263.92,297.75a2.5,2.5,0,0,1-.05-5c1.25,0,125.22-2.79,146.88-2.79a2.5,2.5,0,0,1,0,5c-21.6,0-145.52,2.76-146.77,2.79Z" style="fill:#e6e6e6"></path><path d="M263.92,316.28a2.5,2.5,0,0,1,0-5c1.32,0,132.42-1.86,146.86-1.86a2.5,2.5,0,0,1,0,5c-14.4,0-145.47,1.84-146.79,1.86Z" style="fill:#e6e6e6"></path><path d="M263.92,334.81a2.5,2.5,0,0,1,0-5c1.39,0,139.62-.93,146.84-.93a2.5,2.5,0,0,1,0,5c-7.2,0-145.42.92-146.81.93Z" style="fill:#e6e6e6"></path><path d="M410.75,353.34H263.92a2.5,2.5,0,0,1,0-5H410.75a2.5,2.5,0,0,1,0,5Z" style="fill:#e6e6e6"></path><path d="M236.08,149.49a2.5,2.5,0,0,0,.38-5A1095.23,1095.23,0,0,0,89.25,134.27a2.5,2.5,0,0,0,0,5A1090.08,1090.08,0,0,1,235.7,149.46,2.43,2.43,0,0,0,236.08,149.49Z" style="fill:#e0e0e0"></path><path d="M236.08,168a2.5,2.5,0,0,0,.31-5c-.74-.09-74.87-9.3-147.14-9.3a2.5,2.5,0,0,0,0,5c71.95,0,145.78,9.17,146.52,9.26Z" style="fill:#e0e0e0"></path><path d="M236.08,186.55a2.5,2.5,0,0,0,.25-5c-.81-.09-82.05-8.37-147.08-8.37a2.5,2.5,0,0,0,0,5c64.77,0,145.76,8.26,146.57,8.34Z" style="fill:#e0e0e0"></path><path d="M236.08,205.09a2.5,2.5,0,0,0,.21-5c-.89-.07-89.25-7.43-147-7.43a2.5,2.5,0,1,0,0,5c57.58,0,145.73,7.34,146.62,7.42Z" style="fill:#e0e0e0"></path><path d="M236.08,223.62a2.5,2.5,0,0,0,.17-5c-1-.06-96.44-6.5-147-6.5a2.5,2.5,0,0,0,0,5c50.39,0,145.7,6.43,146.66,6.49Z" style="fill:#e0e0e0"></path><path d="M236.08,242.15a2.5,2.5,0,0,0,.13-5c-1-.05-103.63-5.57-147-5.57a2.5,2.5,0,0,0,0,5c43.2,0,145.66,5.51,146.69,5.57Z" style="fill:#e0e0e0"></path><path d="M236.08,260.68a2.5,2.5,0,0,0,.1-5c-1.1,0-110.82-4.64-146.93-4.64a2.5,2.5,0,1,0,0,5c36,0,145.62,4.59,146.72,4.64Z" style="fill:#e0e0e0"></path><path d="M236.08,279.21a2.5,2.5,0,0,0,.08-5c-1.18,0-118-3.72-146.91-3.72a2.5,2.5,0,0,0,0,5c28.8,0,145.57,3.68,146.75,3.71Z" style="fill:#e0e0e0"></path><path d="M236.08,297.75a2.5,2.5,0,0,0,0-5c-1.25,0-125.22-2.79-146.88-2.79a2.5,2.5,0,0,0,0,5c21.6,0,145.52,2.76,146.77,2.79Z" style="fill:#e0e0e0"></path><path d="M236.08,316.28a2.5,2.5,0,0,0,0-5c-1.32,0-132.42-1.86-146.86-1.86a2.5,2.5,0,0,0,0,5c14.4,0,145.47,1.84,146.79,1.86Z" style="fill:#e0e0e0"></path><path d="M236.08,334.81a2.5,2.5,0,0,0,0-5c-1.39,0-139.62-.93-146.84-.93a2.5,2.5,0,0,0,0,5c7.2,0,145.41.92,146.81.93Z" style="fill:#e0e0e0"></path><path d="M89.25,353.34H236.08a2.5,2.5,0,0,0,0-5H89.25a2.5,2.5,0,0,0,0,5Z" style="fill:#e0e0e0"></path><polygon points="266.11 211.49 257.88 203.49 249.66 211.49 249.66 120.34 266.11 117.34 266.11 211.49" style="fill:#e0e0e0"></polygon></g><g id="freepik--Shadow--inject-21"><ellipse id="freepik--path--inject-21" cx="250" cy="416.24" rx="193.89" ry="11.32" style="fill:#f5f5f5"></ellipse></g><g id="freepik--Books--inject-21"><rect x="234.57" y="330.8" width="60.24" height="26.13" transform="translate(529.39 687.72) rotate(180)" style="fill:#FFDC34"></rect><rect x="234.57" y="330.8" width="60.24" height="26.13" transform="translate(529.39 687.72) rotate(180)" style="fill:#fff;opacity:0.8"></rect><polygon points="289.98 333.35 234.57 333.35 234.57 330.8 289.93 330.8 289.98 333.35" style="isolation:isolate;opacity:0.2"></polygon><polygon points="289.99 335.58 240 336.65 289.99 337.71 289.99 335.58" style="isolation:isolate;opacity:0.2"></polygon><polygon points="289.99 345.24 237.05 346.14 289.99 346.89 289.99 345.24" style="isolation:isolate;opacity:0.2"></polygon><polygon points="289.99 350.89 237.52 351.95 289.99 353.02 289.99 350.89" style="isolation:isolate;opacity:0.2"></polygon><polygon points="234.57 339.3 285.33 340.84 234.57 341.9 234.57 339.3" style="isolation:isolate;opacity:0.2"></polygon><path d="M369,343.73a11.81,11.81,0,0,1-11.84,11.82H231.79a.88.88,0,0,0-.87.88v.93a.87.87,0,0,0,.87.88h126a14.55,14.55,0,0,0,14.53-14.64,14.77,14.77,0,0,0-14.9-14.41H231.79a.87.87,0,0,0-.87.87V331a.87.87,0,0,0,.87.88h125A12.17,12.17,0,0,1,369,343.73Z" style="fill:#263238"></path><path d="M369,343.73a11.81,11.81,0,0,1-11.84,11.82H231.79a.88.88,0,0,0-.87.88v.93a.87.87,0,0,0,.87.88h126a14.55,14.55,0,0,0,14.53-14.64,14.77,14.77,0,0,0-14.9-14.41H231.79a.87.87,0,0,0-.87.87V331a.87.87,0,0,0,.87.88h125A12.17,12.17,0,0,1,369,343.73Z" style="fill:#fff;opacity:0.4"></path><path d="M414.75,343.88h0A13.08,13.08,0,0,1,401.67,357H290V330.8H401.67A13.08,13.08,0,0,1,414.75,343.88Z" style="fill:#FFDC34"></path><path d="M290,330.8V357H401.67a13.09,13.09,0,0,0,0-26.17Z" style="fill:#fff;opacity:0.7000000000000001"></path><polygon points="289.99 337.71 289.99 335.58 401.31 336.48 289.99 337.71" style="isolation:isolate;opacity:0.2"></polygon><polygon points="289.99 346.89 289.99 345.24 339.96 347.03 289.99 346.89" style="isolation:isolate;opacity:0.2"></polygon><polygon points="289.99 353.02 289.99 350.89 370.56 352.12 289.99 353.02" style="isolation:isolate;opacity:0.2"></polygon><path d="M401.85,333.35a8.71,8.71,0,0,1,5.82,2.24,22,22,0,0,0-1.64,4.24l-111.68.88,111.42.28a14.08,14.08,0,0,0,.1,5.95l-75.21,1.64,75.92.88a26.76,26.76,0,0,0,2.52,5.19,13.08,13.08,0,0,0-7.43-23.85H290v2.55Z" style="isolation:isolate;opacity:0.2"></path><path d="M413.72,343.73a11.83,11.83,0,0,1-11.85,11.82H288.11a.88.88,0,0,0-.87.88v.93a.87.87,0,0,0,.87.88H402.53a14.53,14.53,0,0,0,14.52-14.64,14.77,14.77,0,0,0-14.9-14.41h-114a.87.87,0,0,0-.87.87V331a.87.87,0,0,0,.87.88H401.53A12.17,12.17,0,0,1,413.72,343.73Z" style="fill:#263238"></path><polygon points="401.31 340.4 401.31 350.89 397.51 347.1 393.83 350.78 393.83 340.4 401.31 340.4" style="fill:#263238"></polygon><rect x="243.66" y="388.45" width="162.59" height="26.17" style="fill:#FFDC34"></rect><rect x="243.66" y="388.45" width="162.59" height="26.17" style="fill:#fff;opacity:0.7000000000000001"></rect><polygon points="406.26 395.37 406.26 393.24 294.93 394.13 406.26 395.37" style="isolation:isolate;opacity:0.2"></polygon><polygon points="406.26 404.54 406.26 402.9 356.28 404.68 406.26 404.54" style="isolation:isolate;opacity:0.2"></polygon><polygon points="406.26 410.67 406.26 408.55 325.68 409.78 406.26 410.67" style="isolation:isolate;opacity:0.2"></polygon><path d="M280,388.45,277.66,408l2.78-3a23.87,23.87,0,0,0,5.11,9.63,28.41,28.41,0,0,0,4.11-7.51l75.93-.87-75.22-1.64a15.16,15.16,0,0,0,.37-3.23,14.52,14.52,0,0,0-.27-2.73l111.43-.28-111.69-.87a20.34,20.34,0,0,0-1.64-4.24,8.71,8.71,0,0,1,5.82-2.24H406.26v-2.56Z" style="isolation:isolate;opacity:0.2"></path><path d="M282.52,401.38a11.85,11.85,0,0,0,11.85,11.83H408.13a.87.87,0,0,1,.88.87V415a.87.87,0,0,1-.88.87h-177a14.51,14.51,0,0,1-14.52-14.63,14.78,14.78,0,0,1,14.9-14.42H408.13a.87.87,0,0,1,.88.87v.94a.87.87,0,0,1-.88.87H294.72A12.19,12.19,0,0,0,282.52,401.38Z" style="fill:#FFDC34"></path><path d="M282.52,401.38a11.85,11.85,0,0,0,11.85,11.83H408.13a.87.87,0,0,1,.88.87V415a.87.87,0,0,1-.88.87h-177a14.51,14.51,0,0,1-14.52-14.63,14.78,14.78,0,0,1,14.9-14.42H408.13a.87.87,0,0,1,.88.87v.94a.87.87,0,0,1-.88.87H294.72A12.19,12.19,0,0,0,282.52,401.38Z" style="isolation:isolate;opacity:0.4"></path><path d="M282.52,401.38a11.85,11.85,0,0,0,11.85,11.83H408.13a.87.87,0,0,1,.88.87V415a.87.87,0,0,1-.88.87H293.72a14.53,14.53,0,0,1-14.53-14.63,14.78,14.78,0,0,1,14.9-14.42h114a.87.87,0,0,1,.88.87v.94a.87.87,0,0,1-.88.87H294.72A12.19,12.19,0,0,0,282.52,401.38Z" style="fill:#FFDC34"></path><polygon points="294.93 398.06 294.93 408.55 298.73 404.75 302.41 408.43 302.41 398.06 294.93 398.06" style="fill:#263238"></polygon><path d="M282.52,401.38a11.85,11.85,0,0,0,11.85,11.83H408.13a.87.87,0,0,1,.88.87V415a.87.87,0,0,1-.88.87H293.72a14.53,14.53,0,0,1-14.53-14.63,14.78,14.78,0,0,1,14.9-14.42h114a.87.87,0,0,1,.88.87v.94a.87.87,0,0,1-.88.87H294.72A12.19,12.19,0,0,0,282.52,401.38Z" style="fill:#fff;opacity:0.1"></path><path d="M273.93,411.64a14.54,14.54,0,0,0,10.28,4.25h-4.83a14.51,14.51,0,0,1-14.52-14.64,14.76,14.76,0,0,1,14.9-14.41h4.82a14.77,14.77,0,0,0-14.9,14.41A14.5,14.5,0,0,0,273.93,411.64Z" style="fill:#fff;opacity:0.1"></path><path d="M264.28,411.64a14.56,14.56,0,0,0,10.28,4.25h-4.83a14.51,14.51,0,0,1-14.52-14.64,14.77,14.77,0,0,1,14.9-14.41h4.82A14.77,14.77,0,0,0,260,401.25,14.5,14.5,0,0,0,264.28,411.64Z" style="fill:#fff;opacity:0.1"></path><rect x="256.41" y="359.62" width="162.59" height="26.17" style="fill:#FFDC34"></rect><rect x="256.41" y="359.62" width="162.59" height="26.17" style="fill:#fff;opacity:0.8"></rect><polygon points="419 366.54 419 364.41 307.68 365.3 419 366.54" style="isolation:isolate;opacity:0.2"></polygon><polygon points="419 375.71 419 374.07 369.02 375.86 419 375.71" style="isolation:isolate;opacity:0.2"></polygon><polygon points="419 381.84 419 379.72 338.42 380.95 419 381.84" style="isolation:isolate;opacity:0.2"></polygon><path d="M292.76,359.62l-2.36,19.51,2.78-3a24,24,0,0,0,5.12,9.63,28.59,28.59,0,0,0,4.1-7.5l75.93-.88-75.22-1.64a14.32,14.32,0,0,0,.11-5.95l111.42-.28L303,368.66a21.76,21.76,0,0,0-1.64-4.24,8.68,8.68,0,0,1,5.82-2.24H419v-2.56Z" style="isolation:isolate;opacity:0.2"></path><path d="M295.27,372.55a11.85,11.85,0,0,0,11.84,11.83H420.88a.87.87,0,0,1,.87.87v.94a.87.87,0,0,1-.87.87h-168a14.53,14.53,0,0,1-14.53-14.63A14.78,14.78,0,0,1,253.2,358H420.88a.87.87,0,0,1,.87.88v.93a.87.87,0,0,1-.87.87H307.46C300.94,360.69,295.26,366,295.27,372.55Z" style="fill:#263238"></path><path d="M295.27,372.55a11.85,11.85,0,0,0,11.84,11.83H420.88a.87.87,0,0,1,.87.87v.94a.87.87,0,0,1-.87.87h-168a14.53,14.53,0,0,1-14.53-14.63A14.78,14.78,0,0,1,253.2,358H420.88a.87.87,0,0,1,.87.88v.93a.87.87,0,0,1-.87.87H307.46C300.94,360.69,295.26,366,295.27,372.55Z" style="fill:#fff;opacity:0.4"></path><path d="M295.27,372.55a11.85,11.85,0,0,0,11.84,11.83H420.88a.87.87,0,0,1,.87.87v.94a.87.87,0,0,1-.87.87H306.46a14.53,14.53,0,0,1-14.53-14.63A14.78,14.78,0,0,1,306.83,358H420.88a.87.87,0,0,1,.87.88v.93a.87.87,0,0,1-.87.87H307.46C300.94,360.69,295.26,366,295.27,372.55Z" style="fill:#263238"></path><polygon points="316.69 365.5 316.69 376 320.49 372.2 324.17 375.88 324.17 365.5 316.69 365.5" style="fill:#FFDC34"></polygon><path d="M295.27,372.55a11.85,11.85,0,0,0,11.84,11.83H420.88a.87.87,0,0,1,.87.87v.94a.87.87,0,0,1-.87.87H306.46a14.53,14.53,0,0,1-14.53-14.63A14.78,14.78,0,0,1,306.83,358H420.88a.87.87,0,0,1,.87.88v.93a.87.87,0,0,1-.87.87H307.46C300.94,360.69,295.26,366,295.27,372.55Z" style="fill:#fff;opacity:0.6000000000000001"></path><path d="M286.66,365.71H249.53a8.51,8.51,0,0,0,0,13h37.13C284.26,375.43,284.26,369,286.66,365.71Z" style="isolation:isolate;opacity:0.2"></path><rect x="344.22" y="273.14" width="60.24" height="26.13" style="fill:#FFDC34"></rect><rect x="344.22" y="273.14" width="60.24" height="26.13" style="fill:#fff;opacity:0.7000000000000001"></rect><polygon points="349.05 275.7 404.46 275.7 404.46 273.14 349.11 273.14 349.05 275.7" style="isolation:isolate;opacity:0.2"></polygon><polygon points="349.05 277.93 399.04 278.99 349.05 280.06 349.05 277.93" style="isolation:isolate;opacity:0.2"></polygon><polygon points="349.05 287.59 401.99 288.48 349.05 289.23 349.05 287.59" style="isolation:isolate;opacity:0.2"></polygon><polygon points="349.05 293.24 401.51 294.3 349.05 295.36 349.05 293.24" style="isolation:isolate;opacity:0.2"></polygon><polygon points="404.46 281.65 353.71 283.18 404.46 284.24 404.46 281.65" style="isolation:isolate;opacity:0.2"></polygon><path d="M270,286.07a11.85,11.85,0,0,0,11.84,11.83H407.24a.87.87,0,0,1,.87.87v.94a.87.87,0,0,1-.87.87h-126A14.51,14.51,0,0,1,266.68,286a14.77,14.77,0,0,1,14.89-14.42H407.24a.87.87,0,0,1,.87.87v.94a.87.87,0,0,1-.87.87h-125C275.68,274.21,270,279.55,270,286.07Z" style="fill:#FFDC34"></path><path d="M270,286.07a11.85,11.85,0,0,0,11.84,11.83H407.24a.87.87,0,0,1,.87.87v.94a.87.87,0,0,1-.87.87h-126A14.51,14.51,0,0,1,266.68,286a14.77,14.77,0,0,1,14.89-14.42H407.24a.87.87,0,0,1,.87.87v.94a.87.87,0,0,1-.87.87h-125C275.68,274.21,270,279.55,270,286.07Z" style="fill:#fff;opacity:0.4"></path><path d="M224.28,286.23h0a13.09,13.09,0,0,0,13.09,13.08H349.05V273.14H237.37A13.09,13.09,0,0,0,224.28,286.23Z" style="fill:#FFDC34"></path><path d="M349.05,273.14v26.17H237.36a13.09,13.09,0,0,1,0-26.17Z" style="fill:#fff;opacity:0.5"></path><polygon points="349.05 280.06 349.05 277.93 237.72 278.82 349.05 280.06" style="isolation:isolate;opacity:0.2"></polygon><polygon points="349.05 289.23 349.05 287.59 299.07 289.38 349.05 289.23" style="isolation:isolate;opacity:0.2"></polygon><polygon points="349.05 295.36 349.05 293.24 268.47 294.47 349.05 295.36" style="isolation:isolate;opacity:0.2"></polygon><path d="M237.18,275.7a8.77,8.77,0,0,0-5.82,2.23,21.25,21.25,0,0,1,1.65,4.25l111.68.87-111.42.28a15.41,15.41,0,0,1,.27,2.73,14.93,14.93,0,0,1-.38,3.22l75.22,1.65-75.93.88a26.47,26.47,0,0,1-2.52,5.19,13.09,13.09,0,0,1,7.43-23.86H349.05v2.56Z" style="isolation:isolate;opacity:0.2"></path><path d="M225.32,286.07a11.83,11.83,0,0,0,11.84,11.83H350.93a.87.87,0,0,1,.87.87v.94a.87.87,0,0,1-.87.87H236.51A14.53,14.53,0,0,1,222,286a14.78,14.78,0,0,1,14.9-14.42H350.93a.87.87,0,0,1,.87.87v.94a.87.87,0,0,1-.87.87H237.51A12.17,12.17,0,0,0,225.32,286.07Z" style="fill:#FFDC34"></path><polygon points="237.72 282.75 237.72 293.24 241.52 289.44 245.2 293.12 245.2 282.75 237.72 282.75" style="fill:#263238"></polygon><rect x="270.48" y="301.97" width="162.59" height="26.17" style="fill:#FFDC34"></rect><rect x="270.48" y="301.97" width="162.59" height="26.17" style="fill:#fff;opacity:0.7000000000000001"></rect><polygon points="433.07 308.88 433.07 306.75 321.75 307.65 433.07 308.88" style="isolation:isolate;opacity:0.2"></polygon><polygon points="433.07 318.06 433.07 316.42 383.1 318.2 433.07 318.06" style="isolation:isolate;opacity:0.2"></polygon><polygon points="433.07 324.19 433.07 322.07 352.5 323.3 433.07 324.19" style="isolation:isolate;opacity:0.2"></polygon><path d="M306.83,302l-2.36,19.51,2.78-3a24,24,0,0,0,5.12,9.63,28.76,28.76,0,0,0,4.1-7.51l75.94-.87-75.22-1.64a15.93,15.93,0,0,0,.37-3.24,15.2,15.2,0,0,0-.27-2.72l111.42-.28L317,311a21.87,21.87,0,0,0-1.64-4.25,8.7,8.7,0,0,1,5.82-2.23H433.07V302Z" style="isolation:isolate;opacity:0.2"></path><path d="M309.34,314.9a11.85,11.85,0,0,0,11.84,11.83H435a.87.87,0,0,1,.87.87v.94a.87.87,0,0,1-.87.87H258a14.53,14.53,0,0,1-14.52-14.64,14.75,14.75,0,0,1,14.89-14.41H435a.87.87,0,0,1,.87.87v.94a.87.87,0,0,1-.87.87H321.53A12.17,12.17,0,0,0,309.34,314.9Z" style="fill:#263238"></path><path d="M309.34,314.9a11.85,11.85,0,0,0,11.84,11.83H435a.87.87,0,0,1,.87.87v.94a.87.87,0,0,1-.87.87H258a14.53,14.53,0,0,1-14.52-14.64,14.75,14.75,0,0,1,14.89-14.41H435a.87.87,0,0,1,.87.87v.94a.87.87,0,0,1-.87.87H321.53A12.17,12.17,0,0,0,309.34,314.9Z" style="fill:#fff;opacity:0.2"></path><path d="M309.34,314.9a11.85,11.85,0,0,0,11.84,11.83H435a.87.87,0,0,1,.87.87v.94a.87.87,0,0,1-.87.87H320.53A14.53,14.53,0,0,1,306,314.77a14.76,14.76,0,0,1,14.89-14.41H435a.87.87,0,0,1,.87.87v.94a.87.87,0,0,1-.87.87H321.53A12.17,12.17,0,0,0,309.34,314.9Z" style="fill:#263238"></path><polygon points="321.75 311.58 321.75 322.07 325.55 318.27 329.23 321.95 329.23 311.58 321.75 311.58" style="fill:#FFDC34"></polygon><path d="M309.34,314.9a11.85,11.85,0,0,0,11.84,11.83H435a.87.87,0,0,1,.87.87v.94a.87.87,0,0,1-.87.87H320.53A14.53,14.53,0,0,1,306,314.77a14.76,14.76,0,0,1,14.89-14.41H435a.87.87,0,0,1,.87.87v.94a.87.87,0,0,1-.87.87H321.53A12.17,12.17,0,0,0,309.34,314.9Z" style="fill:#fff;opacity:0.4"></path><path d="M267,325.15a14.5,14.5,0,0,0,10.28,4.26h-9.65a14.53,14.53,0,0,1-14.52-14.64A14.75,14.75,0,0,1,268,300.36h9.64a14.76,14.76,0,0,0-14.89,14.41A14.47,14.47,0,0,0,267,325.15Z" style="fill:#fff;opacity:0.2"></path></g><g id="freepik--Character--inject-21"><rect x="193.93" y="330.72" width="53.44" height="79.74" rx="7.04" style="fill:#FFDC34"></rect><rect x="193.93" y="330.72" width="53.44" height="79.74" rx="7.04" style="fill:#fff;isolation:isolate;opacity:0.5"></rect><path d="M236.41,410.46h-35.7a6.78,6.78,0,0,1-6.78-6.79V337.5a6.77,6.77,0,0,1,6.78-6.78h35.7a6.78,6.78,0,0,0-6.78,6.78v66.17A6.79,6.79,0,0,0,236.41,410.46Z" style="isolation:isolate;opacity:0.1"></path><rect x="124.97" y="408.39" width="114.19" height="7.5" transform="translate(364.14 824.28) rotate(180)" style="fill:#263238"></rect><rect x="124.97" y="408.39" width="114.19" height="7.5" transform="translate(364.14 824.28) rotate(180)" style="fill:#fff;isolation:isolate;opacity:0.2"></rect><rect x="174.42" y="408.39" width="64.74" height="7.5" transform="translate(413.59 824.28) rotate(180)" style="fill:#fff;isolation:isolate;opacity:0.2"></rect><path d="M204.43,365.71H120.16l-12.84-66.32a11.75,11.75,0,0,1,11.54-14h60.33a11.75,11.75,0,0,1,11.54,9.52Z" style="fill:#FFDC34"></path><path d="M204.43,365.71H120.16l-12.84-66.32a11.75,11.75,0,0,1,11.54-14h60.33a11.75,11.75,0,0,1,11.54,9.52Z" style="fill:#fff;isolation:isolate;opacity:0.6000000000000001"></path><path d="M144.1,365.71H120.16l-12.84-66.32a11.75,11.75,0,0,1,11.54-14h0a11.75,11.75,0,0,1,11.53,9.52Z" style="isolation:isolate;opacity:0.1"></path><rect x="116.97" y="364.9" width="131.22" height="45.56" rx="5.92" style="fill:#FFDC34"></rect><rect x="116.97" y="364.9" width="131.22" height="45.56" rx="5.92" style="fill:#fff;isolation:isolate;opacity:0.6000000000000001"></rect><rect x="116.97" y="364.9" width="62.93" height="45.56" rx="5.92" style="isolation:isolate;opacity:0.1"></rect><path d="M186.64,272.38c8.65,2.08,14.28,10.52,21.5,14.05.09.08-.08.2,0,.29l-3.35,2.73a4.74,4.74,0,0,0-.86,2.55c0,.51.12.64.16.57a3.64,3.64,0,0,0-.31-1.66c-1.28-3.67-3.76-7.78-5.87-11.35-1.22-2.06-2.55-4.16-3.74-6.21a4.69,4.69,0,0,1,6.68-6.24,65.5,65.5,0,0,1,6.11,4.71c5.92,5.4,13.6,12.66,13.41,21.52,0,2.92-2.06,7.45-5.37,8.66-12.06,5.87-23.47-4.64-32.11-11.07-.34-.23-.63-.4-.78-.49s-.16-.09.19,0c-11.84-3.37-7.71-20.46,4.37-18Z" style="fill:#263238"></path><path d="M202.1,296c-1.12-.1-2.17-.25-3.21-.43s-2.26-.41-3.36-.65-2.14-.53-3.19-.81c-2.1-.56-4.13-1.25-6.13-2l-.18-.07a11.4,11.4,0,0,1,4.69-4.89S196.85,289.08,202.1,296Z" style="opacity:0.2"></path><polygon points="240.7 396.2 252.94 397.1 252.56 411.57 242.34 410.84 240.7 396.2" style="fill:#e4897b"></polygon><polygon points="240.71 396.21 252.94 397.1 252.73 405.21 241.62 404.4 240.71 396.21" style="opacity:0.2"></polygon><path d="M240.88,415.89h2.67l.72-1.08,1.4,1.09,16.09,0a7.21,7.21,0,0,0-.69-3.68s-4.82-.43-6.67-2.83a.6.6,0,0,0-.6-.23c-1.6.34-8,1.55-11.46.3a.58.58,0,0,0-.79.52A39,39,0,0,1,240.88,415.89Z" style="fill:#263238"></path><path d="M173.66,333.66s-18.21,34,3.39,34c27.19,0,53.08-6.85,53.08-6.85s-1.48,14.5,9,42l14.69-.12s5.72-59.09-5.24-69c-8.82-8-40.14-5.43-40.14-5.43Z" style="fill:#FFDC34"></path><path d="M233.36,380.41c-.19.72-.37,1.42-.56,2.11-3.43-14.32-2.67-21.75-2.67-21.75s-25.89,6.85-53.08,6.85c-13.14,0-11.55-12.56-8.28-22.41,9.26-5.88,19-11.21,26-14.84l13.67-2.13s5.63-.47,12.8-.39C231.84,332.58,242,345.62,233.36,380.41Z" style="opacity:0.2"></path><path d="M207.64,328.71c-15.8,8.73-56.14,6.3-63.34,5.08-.89-11.9-2-30.92-5.75-45a11.51,11.51,0,0,1,8.63-14.31,154.54,154.54,0,0,1,34-2.83c4,.14,8.28,2.08,9.56,5.87C196.59,295,205.93,309.17,207.64,328.71Z" style="fill:#263238"></path><path d="M171.26,280.78c-6.63.34-12.39-5.31-15.49-7.27,3.35-2.34,5-6.54,5.62-8.87.29-1,.41-1.7.41-1.7l11.26,5a6.68,6.68,0,0,0-.34,4.51,6,6,0,0,1,3.11,3.2.42.42,0,0,0,0,.1C176.7,278.05,177.8,280.45,171.26,280.78Z" style="fill:#e4897b"></path><path d="M175.87,275.76c-6.71,2.77-13.28-5.33-14.48-11.12.29-1,.41-1.7.41-1.7l11.26,5a6.68,6.68,0,0,0-.34,4.51,6,6,0,0,1,3.11,3.2A.42.42,0,0,0,175.87,275.76Z" style="opacity:0.2"></path><path d="M171.66,280.76l-2.5-2.23-3.86,1.93S167.42,282.62,171.66,280.76Z" style="fill:#FFDC34"></path><path d="M171.66,280.76l-2.5-2.23-3.86,1.93S167.42,282.62,171.66,280.76Z" style="fill:#fff;opacity:0.5"></path><path d="M157.37,271.86s4.75,6.49,11.79,6.67a11,11,0,0,0-5.48,6.71,13.65,13.65,0,0,1-9.26-11.9A3.9,3.9,0,0,1,157.37,271.86Z" style="fill:#FFDC34"></path><path d="M171.66,280.76,175,277.9l3.82,1.09S175.54,282.44,171.66,280.76Z" style="fill:#FFDC34"></path><path d="M171.66,280.76,175,277.9l3.82,1.09S175.54,282.44,171.66,280.76Z" style="fill:#fff;opacity:0.5"></path><path d="M172.72,272.46s2.42,3.14,2.32,5.44c3.21.87,4.31,5.7,4.31,5.7s1.31-7-3.5-10.61A5.19,5.19,0,0,0,172.72,272.46Z" style="fill:#FFDC34"></path><path d="M157.37,271.86s4.75,6.49,11.79,6.67a11,11,0,0,0-5.48,6.71,13.65,13.65,0,0,1-9.26-11.9A3.9,3.9,0,0,1,157.37,271.86Z" style="fill:#fff;opacity:0.8"></path><path d="M172.72,272.46s2.42,3.14,2.32,5.44c3.21.87,4.31,5.7,4.31,5.7s1.31-7-3.5-10.61A5.19,5.19,0,0,0,172.72,272.46Z" style="fill:#fff;opacity:0.8"></path><polygon points="217.26 397.36 229.46 396.1 231.62 410.41 221.43 411.48 217.26 397.36" style="fill:#e4897b"></polygon><polygon points="217.26 397.37 229.47 396.1 230.68 404.12 219.6 405.27 217.26 397.37" style="opacity:0.2"></polygon><path d="M219.66,415.89h2.66l.73-1.08,1.4,1.09,16.09,0a7.17,7.17,0,0,0-.7-3.68s-4.81-.43-6.67-2.83a.59.59,0,0,0-.59-.23c-1.6.34-8,1.55-11.47.3a.57.57,0,0,0-.78.52A39,39,0,0,1,219.66,415.89Z" style="fill:#263238"></path><path d="M144.72,333.66s-7.61,25.1,12.86,32,40.69-5.29,40.69-5.29,0,5.29,18.24,44.14l15.11-2.85s-5.33-58.15-12-68-40.15-5.43-40.15-5.43Z" style="fill:#FFDC34"></path><path d="M198.47,265.81l-3.36,3.92c-4.76,2.6-7.05-4.1-7.05-4.1l-3.54-4a2.74,2.74,0,0,1,.2-3.54l2.32-2.76a2.86,2.86,0,0,1,3.93-.63l3.61,3.24a5.58,5.58,0,0,1,1.62,2.22Z" style="fill:#e4897b"></path><path d="M172.89,310.31s-9.25,18.87-28.59,23.48c-.77-10.3-1.64-26.91-4.36-39.26,3.85-2.31,14.48-4.8,14.48-4.8a34,34,0,0,0,2.88,13.42,64.07,64.07,0,0,1,16.08-4C176.2,298.79,172.89,310.31,172.89,310.31Z" style="opacity:0.2"></path><path d="M153.43,290.8a6.44,6.44,0,0,0,1.41-1.51c.11-.18.1-.16.08-.08s-.2.56-.32,1c-1.44,5.91-2.3,13.16-.56,19,.15.43.12.37-.27.25l2.63,2.4a5.76,5.76,0,0,0-1.54-1.42c-.84-.67-3.06-1.11-3.54-.75-.24.19.43.11,1.09-.12,5.56-2.05,11.28-6.15,16.56-9.16a4.71,4.71,0,0,1,6.3,6.61c-5.16,7.57-15.82,20.95-26.35,18.63a10.92,10.92,0,0,1-6.16-4.08l2.63,2.4c-5.09-2.85-7.56-7.51-9-12.29a50,50,0,0,1,.28-26.86c1-3.06,2.28-6.18,5.06-8.45a9.28,9.28,0,0,1,11.71,14.39Z" style="fill:#263238"></path><path d="M193.2,273.11l-2-2.24a33.94,33.94,0,0,0,7.78-6.09l3.6.94S199.33,272.62,193.2,273.11Z" style="fill:#FFDC34"></path><path d="M193.2,273.11l-2-2.24a33.94,33.94,0,0,0,7.78-6.09l3.6.94S199.33,272.62,193.2,273.11Z" style="fill:#fff;opacity:0.5"></path><path d="M218.09,274.57l-2.9,8.9-10.25,18.11s-24.94,3.5-25.5-3.84c-.51-6.58,1.19-17.29,1.55-19.44l.06-.39c13.95,1.36,22.84,6.55,22.84,6.55C208.22,277.51,218.09,274.57,218.09,274.57Z" style="fill:#fff;opacity:0.9"></path><path d="M218.09,274.57l-2.9,8.9-10.25,18.11s-24.94,3.5-25.5-3.84c-.51-6.58,1.19-17.29,1.55-19.44,10.17.93,22.91,7.1,22.91,7.1C205.29,281,218.09,274.57,218.09,274.57Z" style="opacity:0.1"></path><path d="M214.93,304s-4.62,2.15-12.47,8.3a4.31,4.31,0,0,1-1.52.78,4.37,4.37,0,0,1-2.27.07,149.06,149.06,0,0,0-20.44-3.42s-.88-17,.94-29.64c0,0,14,1.21,24.72,5.33h0c.31-.25,10.23-8.28,16.54-9.36C220.44,276,212.5,292.4,214.93,304Z" style="fill:#FFDC34"></path><path d="M214.93,304s-4.62,2.15-12.47,8.3a4.31,4.31,0,0,1-1.52.78c.46-6.9,1.75-24.79,2.95-27.66h0c.31-.25,10.23-8.28,16.54-9.36C220.44,276,212.5,292.4,214.93,304Z" style="opacity:0.1"></path><path d="M203,285.06a2.83,2.83,0,0,0,2-.51s-1.38,12.8-2.67,27.87a2.06,2.06,0,0,1-2.68.95S201.07,294.13,203,285.06Z" style="fill:#FFDC34"></path><path d="M203,285.06a2.83,2.83,0,0,0,2-.51s-1.38,12.8-2.67,27.87a2.06,2.06,0,0,1-2.68.95S201.07,294.13,203,285.06Z" style="fill:#fff;isolation:isolate;opacity:0.2"></path><path d="M207.14,288.49s4.7-4,8.64-4.89l-.61,2.45a27.1,27.1,0,0,0-8.54,5.57Z" style="fill:#fff;opacity:0.7000000000000001"></path><path d="M181.61,302.42s12,2,15.3,3.13v4.85s-10-2.22-15.44-2.8Z" style="opacity:0.1"></path><path d="M209.55,284.27l-.25,1.14a31.43,31.43,0,0,1,5-2.71l.44-1.48A21.77,21.77,0,0,0,209.55,284.27Z" style="fill:#fff;opacity:0.7000000000000001"></path><path d="M171.26,300.34l.93,4.81c2.7,4.39,7.74-.06,7.74-.06l3.28-1.16a2.6,2.6,0,0,0,1.5-3l-.62-3.37a2.7,2.7,0,0,0-2.94-2.37l-3,.53a5.52,5.52,0,0,0-2.39,1.07Z" style="fill:#e4897b"></path><path d="M169.84,299.3l3.38-.47a22.38,22.38,0,0,0,1.58,9l-2.2,4.4S167.06,304.8,169.84,299.3Z" style="fill:#FFDC34"></path><path d="M169.84,299.3l3.38-.47a22.38,22.38,0,0,0,1.58,9l-2.2,4.4S167.06,304.8,169.84,299.3Z" style="fill:#fff;opacity:0.5"></path><path d="M185.66,258.16h0l-3.23-.5a.24.24,0,0,1-.21-.28.25.25,0,0,1,.29-.21l3.22.5a.24.24,0,0,1,.21.28A.25.25,0,0,1,185.66,258.16Z" style="fill:#263238"></path><path d="M185.94,253.63c-1,3.32-3.41,6.43-5.72,4.42a3.61,3.61,0,0,1-.85-3.6c.68-3.44,3.9-7.55,3.9-7.55s2.26-1.12,3.07,2.46A9.09,9.09,0,0,1,185.94,253.63Z" style="fill:#263238"></path><path d="M185.94,253.63c-1,3.32-3.41,6.43-5.72,4.42a3.61,3.61,0,0,1-.85-3.6,27,27,0,0,1,3.59-2.38S184.39,251.52,185.94,253.63Z" style="fill:#fff;opacity:0.5"></path><path d="M179,244.26c-7.12-4.61-16.21-.68-17.33,6.9s-1.71,12.75,2.25,17c7.87,8.35,14.29,5.53,17.82-1.51C184.86,260.27,186.16,248.94,179,244.26Z" style="fill:#e4897b"></path><path d="M172.77,256.15a3.83,3.83,0,0,0-2.83-.61A7.46,7.46,0,0,0,172.77,256.15Z" style="opacity:0.2"></path><path d="M172.58,256.82a3.12,3.12,0,0,0-2.62.1A6.17,6.17,0,0,0,172.58,256.82Z" style="opacity:0.2"></path><path d="M183.28,250c-2,2.85-7.13-2-11.49-3.83a2.52,2.52,0,0,0-3.48,1.9h0a2.62,2.62,0,0,0,0,1c.75,3.15-1.83,4.75-1.49,6.55.81,4.18-2.5,4.37-6.47,1.77a3.65,3.65,0,0,1-1.41-1.32c-2.05-1.26-2.49-3.85-1.8-7a25.19,25.19,0,0,1,1.84-5.24c2.56-5.46,11.84-6.24,11.84-6.24s8.77-1.44,11.89,3.8S183.28,250,183.28,250Z" style="fill:#263238"></path><path d="M174,256.7c-.15.65.08,1.26.51,1.35s.89-.37,1-1-.09-1.26-.52-1.35S174.15,256.05,174,256.7Z" style="fill:#263238"></path><path d="M181.65,258.45c-.14.65.09,1.25.52,1.34s.89-.36,1-1-.08-1.25-.51-1.34S181.8,257.79,181.65,258.45Z" style="fill:#263238"></path><path d="M172.14,254.38a.44.44,0,0,1-.19-.07.4.4,0,0,1-.08-.55,3.9,3.9,0,0,1,3.17-1.69.38.38,0,0,1,.37.41.39.39,0,0,1-.41.37h0a3.15,3.15,0,0,0-2.5,1.37A.38.38,0,0,1,172.14,254.38Z" style="fill:#263238"></path><path d="M185.08,256.56a.41.41,0,0,1-.26-.27,3.08,3.08,0,0,0-1.87-2.12.38.38,0,0,1-.25-.49.39.39,0,0,1,.49-.26,3.89,3.89,0,0,1,2.39,2.65.4.4,0,0,1-.27.49A.45.45,0,0,1,185.08,256.56Z" style="fill:#263238"></path><path d="M166.85,255.68c.81,4.18-2.5,4.37-6.47,1.77a3.65,3.65,0,0,1-1.41-1.32c-2.05-1.26-2.49-3.85-1.8-7a12.91,12.91,0,0,0,8.31-1.3,2.66,2.66,0,0,1-1.34,1.24,4.63,4.63,0,0,0,4.17-.94,2.62,2.62,0,0,0,0,1C169.09,252.28,166.51,253.88,166.85,255.68Z" style="fill:#fff;opacity:0.5"></path><path d="M179,257.42l-1.61,5.38a3.53,3.53,0,0,0,2.91.29A11.37,11.37,0,0,0,179,257.42Z" style="fill:#de5753"></path><path d="M176.91,266.8l-.12,0c-.14,0-3.3-1.16-4.35-3.25a.37.37,0,1,1,.66-.34c.92,1.82,3.9,2.87,3.93,2.88a.37.37,0,0,1,.23.48A.38.38,0,0,1,176.91,266.8Z" style="fill:#263238"></path><path d="M166.86,257.76s-.15,4.49,1.62,6.63c0,0,2.76-3.33,5.12-3.31s3.31,2.87,3.31,2.87l-.86.44s-1.19-2.13-2.45-2.28-4.31,2.78-3.64,4.32,3.64,0,3.64,0l1.18.66s-1.77,2.93,1.67,2.66,3.74-4.46.46-4.88l.48-.94s3.37.13,4,3.28-1,8-8.85,7.15c-4.15-.45-11.72-5.09-8.18-15.49Z" style="fill:#263238"></path><path d="M180.3,257a.25.25,0,0,1-.16-.06,2,2,0,0,0-1.78-.43.24.24,0,0,1-.31-.17.25.25,0,0,1,.16-.31,2.55,2.55,0,0,1,2.25.53.24.24,0,0,1,0,.35A.25.25,0,0,1,180.3,257Z" style="fill:#263238"></path><path d="M170.83,254.62h-.05L163,252.94a1.52,1.52,0,0,0-1.84,1.13l0,.15a.25.25,0,1,1-.49-.12l0-.15a2,2,0,0,1,2.44-1.5l7.77,1.67a.25.25,0,0,1,.19.3A.26.26,0,0,1,170.83,254.62Z" style="fill:#263238"></path><path d="M183.21,261.82a1.27,1.27,0,0,1-.28,0l-1.2-.29a2.34,2.34,0,0,1-1.51-2.48l0-2.34a.26.26,0,0,1,.15-.23,4.68,4.68,0,0,1,2.91-.1,4.13,4.13,0,0,1,2.56,1.43.27.27,0,0,1,0,.23l-1.11,2.56A1.85,1.85,0,0,1,183.21,261.82Zm-2.46-5,0,2.18c0,1,.44,1.82,1.13,2l1.19.29c.46.11,1-.28,1.28-.93l1.05-2.42a4.24,4.24,0,0,0-2.18-1.11A4.62,4.62,0,0,0,180.75,256.85Z" style="fill:#263238"></path><path d="M174.6,259.71a3.25,3.25,0,0,1-.69-.08l-1.69-.41a2.09,2.09,0,0,1-1.61-2l0-2.83a.25.25,0,0,1,.16-.24s1.28-.48,4,.17a8.32,8.32,0,0,1,3.59,1.63.24.24,0,0,1,0,.31l-1.24,2.06A2.92,2.92,0,0,1,174.6,259.71Zm-3.52-5.15,0,2.63a1.59,1.59,0,0,0,1.23,1.55l1.69.4a2.41,2.41,0,0,0,2.64-1.1l1.13-1.87a8.84,8.84,0,0,0-3.21-1.39A8,8,0,0,0,171.08,254.56Z" style="fill:#263238"></path><path d="M157.51,256.77a6.78,6.78,0,0,0,3.24,4.07c2.1,1.14,3.7-.61,3.58-2.87-.12-2-1.35-5.08-3.68-5.29A3.09,3.09,0,0,0,157.51,256.77Z" style="fill:#e4897b"></path><rect x="107.1" y="330.72" width="53.44" height="79.74" rx="7.04" style="fill:#FFDC34"></rect><rect x="107.1" y="330.72" width="53.44" height="79.74" rx="7.04" style="fill:#fff;isolation:isolate;opacity:0.6000000000000001"></rect><path d="M149.58,410.46H113.89a6.79,6.79,0,0,1-6.79-6.79V337.5a6.78,6.78,0,0,1,6.79-6.78h35.69a6.78,6.78,0,0,0-6.78,6.78v66.17A6.79,6.79,0,0,0,149.58,410.46Z" style="isolation:isolate;opacity:0.2"></path></g></svg>
